<mxfile host="app.diagrams.net" modified="2024-05-08T09:57:09.735Z" agent="Mozilla/5.0 (X11; Linux x86_64; rv:121.0) Gecko/20100101 Firefox/121.0" etag="qzoxVkpnfpUlpJP-yfQX" version="24.3.1" type="device">
  <diagram name="Page-1" id="OdZcB8VeIf5t8aZ7XApL">
    <mxGraphModel dx="1434" dy="704" grid="0" gridSize="10" guides="1" tooltips="1" connect="1" arrows="1" fold="1" page="1" pageScale="1" pageWidth="1654" pageHeight="2336" math="0" shadow="0">
      <root>
        <mxCell id="0" />
        <mxCell id="1" parent="0" />
        <mxCell id="NXXbfyBp3kHqgqcvMXdh-1" value="" style="childLayout=tableLayout;recursiveResize=0;shadow=0;fillColor=none;" parent="1" vertex="1">
          <mxGeometry x="195" y="150" width="240" height="137" as="geometry" />
        </mxCell>
        <mxCell id="NXXbfyBp3kHqgqcvMXdh-2" value="" style="shape=tableRow;horizontal=0;startSize=0;swimlaneHead=0;swimlaneBody=0;top=0;left=0;bottom=0;right=0;dropTarget=0;collapsible=0;recursiveResize=0;expand=0;fontStyle=0;fillColor=none;strokeColor=inherit;" parent="NXXbfyBp3kHqgqcvMXdh-1" vertex="1">
          <mxGeometry width="240" height="47" as="geometry" />
        </mxCell>
        <mxCell id="NXXbfyBp3kHqgqcvMXdh-3" value="KPr(0)" style="connectable=0;recursiveResize=0;strokeColor=inherit;fillColor=none;align=center;whiteSpace=wrap;html=1;" parent="NXXbfyBp3kHqgqcvMXdh-2" vertex="1">
          <mxGeometry width="60" height="47" as="geometry">
            <mxRectangle width="60" height="47" as="alternateBounds" />
          </mxGeometry>
        </mxCell>
        <mxCell id="NXXbfyBp3kHqgqcvMXdh-4" value="KPr(1)" style="connectable=0;recursiveResize=0;strokeColor=inherit;fillColor=none;align=center;whiteSpace=wrap;html=1;" parent="NXXbfyBp3kHqgqcvMXdh-2" vertex="1">
          <mxGeometry x="60" width="60" height="47" as="geometry">
            <mxRectangle width="60" height="47" as="alternateBounds" />
          </mxGeometry>
        </mxCell>
        <mxCell id="NXXbfyBp3kHqgqcvMXdh-5" value="KPr(2)" style="connectable=0;recursiveResize=0;strokeColor=inherit;fillColor=none;align=center;whiteSpace=wrap;html=1;" parent="NXXbfyBp3kHqgqcvMXdh-2" vertex="1">
          <mxGeometry x="120" width="60" height="47" as="geometry">
            <mxRectangle width="60" height="47" as="alternateBounds" />
          </mxGeometry>
        </mxCell>
        <mxCell id="NXXbfyBp3kHqgqcvMXdh-22" value="KPr(n)" style="connectable=0;recursiveResize=0;strokeColor=inherit;fillColor=none;align=center;whiteSpace=wrap;html=1;" parent="NXXbfyBp3kHqgqcvMXdh-2" vertex="1">
          <mxGeometry x="180" width="60" height="47" as="geometry">
            <mxRectangle width="60" height="47" as="alternateBounds" />
          </mxGeometry>
        </mxCell>
        <mxCell id="NXXbfyBp3kHqgqcvMXdh-6" style="shape=tableRow;horizontal=0;startSize=0;swimlaneHead=0;swimlaneBody=0;top=0;left=0;bottom=0;right=0;dropTarget=0;collapsible=0;recursiveResize=0;expand=0;fontStyle=0;fillColor=none;strokeColor=inherit;" parent="NXXbfyBp3kHqgqcvMXdh-1" vertex="1">
          <mxGeometry y="47" width="240" height="43" as="geometry" />
        </mxCell>
        <mxCell id="NXXbfyBp3kHqgqcvMXdh-7" value="KPr(0)" style="connectable=0;recursiveResize=0;strokeColor=inherit;fillColor=none;align=center;whiteSpace=wrap;html=1;" parent="NXXbfyBp3kHqgqcvMXdh-6" vertex="1">
          <mxGeometry width="60" height="43" as="geometry">
            <mxRectangle width="60" height="43" as="alternateBounds" />
          </mxGeometry>
        </mxCell>
        <mxCell id="NXXbfyBp3kHqgqcvMXdh-8" value="KPr(1)" style="connectable=0;recursiveResize=0;strokeColor=inherit;fillColor=none;align=center;whiteSpace=wrap;html=1;" parent="NXXbfyBp3kHqgqcvMXdh-6" vertex="1">
          <mxGeometry x="60" width="60" height="43" as="geometry">
            <mxRectangle width="60" height="43" as="alternateBounds" />
          </mxGeometry>
        </mxCell>
        <mxCell id="NXXbfyBp3kHqgqcvMXdh-9" value="KPr(2)" style="connectable=0;recursiveResize=0;strokeColor=inherit;fillColor=none;align=center;whiteSpace=wrap;html=1;" parent="NXXbfyBp3kHqgqcvMXdh-6" vertex="1">
          <mxGeometry x="120" width="60" height="43" as="geometry">
            <mxRectangle width="60" height="43" as="alternateBounds" />
          </mxGeometry>
        </mxCell>
        <mxCell id="NXXbfyBp3kHqgqcvMXdh-23" value="KPr(n)" style="connectable=0;recursiveResize=0;strokeColor=inherit;fillColor=none;align=center;whiteSpace=wrap;html=1;" parent="NXXbfyBp3kHqgqcvMXdh-6" vertex="1">
          <mxGeometry x="180" width="60" height="43" as="geometry">
            <mxRectangle width="60" height="43" as="alternateBounds" />
          </mxGeometry>
        </mxCell>
        <mxCell id="NXXbfyBp3kHqgqcvMXdh-10" style="shape=tableRow;horizontal=0;startSize=0;swimlaneHead=0;swimlaneBody=0;top=0;left=0;bottom=0;right=0;dropTarget=0;collapsible=0;recursiveResize=0;expand=0;fontStyle=0;fillColor=none;strokeColor=inherit;" parent="NXXbfyBp3kHqgqcvMXdh-1" vertex="1">
          <mxGeometry y="90" width="240" height="47" as="geometry" />
        </mxCell>
        <mxCell id="NXXbfyBp3kHqgqcvMXdh-11" value="KPr(0)" style="connectable=0;recursiveResize=0;strokeColor=inherit;fillColor=none;align=center;whiteSpace=wrap;html=1;" parent="NXXbfyBp3kHqgqcvMXdh-10" vertex="1">
          <mxGeometry width="60" height="47" as="geometry">
            <mxRectangle width="60" height="47" as="alternateBounds" />
          </mxGeometry>
        </mxCell>
        <mxCell id="NXXbfyBp3kHqgqcvMXdh-12" value="KPr(1)" style="connectable=0;recursiveResize=0;strokeColor=inherit;fillColor=none;align=center;whiteSpace=wrap;html=1;" parent="NXXbfyBp3kHqgqcvMXdh-10" vertex="1">
          <mxGeometry x="60" width="60" height="47" as="geometry">
            <mxRectangle width="60" height="47" as="alternateBounds" />
          </mxGeometry>
        </mxCell>
        <mxCell id="NXXbfyBp3kHqgqcvMXdh-13" value="KPr(2)" style="connectable=0;recursiveResize=0;strokeColor=inherit;fillColor=none;align=center;whiteSpace=wrap;html=1;" parent="NXXbfyBp3kHqgqcvMXdh-10" vertex="1">
          <mxGeometry x="120" width="60" height="47" as="geometry">
            <mxRectangle width="60" height="47" as="alternateBounds" />
          </mxGeometry>
        </mxCell>
        <mxCell id="NXXbfyBp3kHqgqcvMXdh-24" value="KPr(n)" style="connectable=0;recursiveResize=0;strokeColor=inherit;fillColor=none;align=center;whiteSpace=wrap;html=1;" parent="NXXbfyBp3kHqgqcvMXdh-10" vertex="1">
          <mxGeometry x="180" width="60" height="47" as="geometry">
            <mxRectangle width="60" height="47" as="alternateBounds" />
          </mxGeometry>
        </mxCell>
        <mxCell id="NXXbfyBp3kHqgqcvMXdh-33" style="edgeStyle=orthogonalEdgeStyle;rounded=0;orthogonalLoop=1;jettySize=auto;html=1;exitX=1;exitY=0.5;exitDx=0;exitDy=0;" parent="1" source="NXXbfyBp3kHqgqcvMXdh-27" target="NXXbfyBp3kHqgqcvMXdh-41" edge="1">
          <mxGeometry relative="1" as="geometry">
            <mxPoint x="125" y="219" as="targetPoint" />
          </mxGeometry>
        </mxCell>
        <mxCell id="NXXbfyBp3kHqgqcvMXdh-27" value="" style="whiteSpace=wrap;html=1;aspect=fixed;" parent="1" vertex="1">
          <mxGeometry x="35" y="213.5" width="10" height="10" as="geometry" />
        </mxCell>
        <mxCell id="NXXbfyBp3kHqgqcvMXdh-30" value="Vcandidates[ ]" style="text;html=1;align=center;verticalAlign=middle;whiteSpace=wrap;rounded=0;" parent="1" vertex="1">
          <mxGeometry x="10" y="183.5" width="85" height="30" as="geometry" />
        </mxCell>
        <mxCell id="NXXbfyBp3kHqgqcvMXdh-40" value="" style="shape=curlyBracket;whiteSpace=wrap;html=1;rounded=1;labelPosition=left;verticalLabelPosition=middle;align=right;verticalAlign=middle;" parent="1" vertex="1">
          <mxGeometry x="165" y="150" width="20" height="137" as="geometry" />
        </mxCell>
        <mxCell id="NXXbfyBp3kHqgqcvMXdh-41" value="Nrows" style="text;html=1;align=center;verticalAlign=middle;whiteSpace=wrap;rounded=0;" parent="1" vertex="1">
          <mxGeometry x="115" y="203.5" width="60" height="30" as="geometry" />
        </mxCell>
        <mxCell id="NXXbfyBp3kHqgqcvMXdh-42" value="" style="endArrow=classic;html=1;rounded=0;" parent="1" edge="1">
          <mxGeometry width="50" height="50" relative="1" as="geometry">
            <mxPoint x="450" y="180" as="sourcePoint" />
            <mxPoint x="510" y="180" as="targetPoint" />
          </mxGeometry>
        </mxCell>
        <mxCell id="NXXbfyBp3kHqgqcvMXdh-43" value="" style="endArrow=classic;html=1;rounded=0;" parent="1" edge="1">
          <mxGeometry width="50" height="50" relative="1" as="geometry">
            <mxPoint x="450" y="218.16" as="sourcePoint" />
            <mxPoint x="510" y="218.16" as="targetPoint" />
          </mxGeometry>
        </mxCell>
        <mxCell id="NXXbfyBp3kHqgqcvMXdh-44" value="" style="endArrow=classic;html=1;rounded=0;" parent="1" edge="1">
          <mxGeometry width="50" height="50" relative="1" as="geometry">
            <mxPoint x="450" y="260" as="sourcePoint" />
            <mxPoint x="510" y="260" as="targetPoint" />
          </mxGeometry>
        </mxCell>
        <mxCell id="NXXbfyBp3kHqgqcvMXdh-45" value="" style="endArrow=none;dashed=1;html=1;dashPattern=1 3;strokeWidth=2;rounded=0;" parent="1" edge="1">
          <mxGeometry width="50" height="50" relative="1" as="geometry">
            <mxPoint x="480" y="260" as="sourcePoint" />
            <mxPoint x="480" y="90" as="targetPoint" />
          </mxGeometry>
        </mxCell>
        <mxCell id="NXXbfyBp3kHqgqcvMXdh-46" value="calculate distance()" style="text;html=1;align=center;verticalAlign=middle;whiteSpace=wrap;rounded=0;" parent="1" vertex="1">
          <mxGeometry x="420" y="60" width="125" height="30" as="geometry" />
        </mxCell>
        <mxCell id="NXXbfyBp3kHqgqcvMXdh-47" value="GPU-Algoritm" style="shape=hexagon;perimeter=hexagonPerimeter2;whiteSpace=wrap;html=1;fixedSize=1;strokeColor=#66FF66;" parent="1" vertex="1">
          <mxGeometry x="540" y="60" width="90" height="30" as="geometry" />
        </mxCell>
        <mxCell id="NXXbfyBp3kHqgqcvMXdh-54" value="" style="childLayout=tableLayout;recursiveResize=0;shadow=0;fillColor=none;" parent="1" vertex="1">
          <mxGeometry x="530" y="155.5" width="150" height="131.5" as="geometry" />
        </mxCell>
        <mxCell id="NXXbfyBp3kHqgqcvMXdh-55" value="" style="shape=tableRow;horizontal=0;startSize=0;swimlaneHead=0;swimlaneBody=0;top=0;left=0;bottom=0;right=0;dropTarget=0;collapsible=0;recursiveResize=0;expand=0;fontStyle=0;fillColor=none;strokeColor=inherit;" parent="NXXbfyBp3kHqgqcvMXdh-54" vertex="1">
          <mxGeometry width="150" height="44" as="geometry" />
        </mxCell>
        <mxCell id="NXXbfyBp3kHqgqcvMXdh-56" value="&lt;div&gt;Distance&lt;/div&gt;&lt;div&gt;KPr(0)&lt;br&gt;&lt;/div&gt;" style="connectable=0;recursiveResize=0;strokeColor=inherit;fillColor=none;align=center;whiteSpace=wrap;html=1;" parent="NXXbfyBp3kHqgqcvMXdh-55" vertex="1">
          <mxGeometry width="49" height="44" as="geometry">
            <mxRectangle width="49" height="44" as="alternateBounds" />
          </mxGeometry>
        </mxCell>
        <mxCell id="NXXbfyBp3kHqgqcvMXdh-57" value="&lt;div&gt;Distance&lt;/div&gt;&lt;div&gt;KPr(1)&lt;br&gt;&lt;/div&gt;" style="connectable=0;recursiveResize=0;strokeColor=inherit;fillColor=none;align=center;whiteSpace=wrap;html=1;" parent="NXXbfyBp3kHqgqcvMXdh-55" vertex="1">
          <mxGeometry x="49" width="52" height="44" as="geometry">
            <mxRectangle width="52" height="44" as="alternateBounds" />
          </mxGeometry>
        </mxCell>
        <mxCell id="NXXbfyBp3kHqgqcvMXdh-58" value="&lt;div&gt;Distance&lt;/div&gt;&lt;div&gt;KPr(n)&lt;br&gt;&lt;/div&gt;" style="connectable=0;recursiveResize=0;strokeColor=inherit;fillColor=none;align=center;whiteSpace=wrap;html=1;" parent="NXXbfyBp3kHqgqcvMXdh-55" vertex="1">
          <mxGeometry x="101" width="49" height="44" as="geometry">
            <mxRectangle width="49" height="44" as="alternateBounds" />
          </mxGeometry>
        </mxCell>
        <mxCell id="NXXbfyBp3kHqgqcvMXdh-59" style="shape=tableRow;horizontal=0;startSize=0;swimlaneHead=0;swimlaneBody=0;top=0;left=0;bottom=0;right=0;dropTarget=0;collapsible=0;recursiveResize=0;expand=0;fontStyle=0;fillColor=none;strokeColor=inherit;" parent="NXXbfyBp3kHqgqcvMXdh-54" vertex="1">
          <mxGeometry y="44" width="150" height="42" as="geometry" />
        </mxCell>
        <mxCell id="NXXbfyBp3kHqgqcvMXdh-60" value="&lt;div&gt;Distance&lt;/div&gt;&lt;div&gt;KPr(0)&lt;br&gt;&lt;/div&gt;" style="connectable=0;recursiveResize=0;strokeColor=inherit;fillColor=none;align=center;whiteSpace=wrap;html=1;" parent="NXXbfyBp3kHqgqcvMXdh-59" vertex="1">
          <mxGeometry width="49" height="42" as="geometry">
            <mxRectangle width="49" height="42" as="alternateBounds" />
          </mxGeometry>
        </mxCell>
        <mxCell id="NXXbfyBp3kHqgqcvMXdh-61" value="&lt;div&gt;Distance&lt;/div&gt;&lt;div&gt;KPr(1)&lt;br&gt;&lt;/div&gt;" style="connectable=0;recursiveResize=0;strokeColor=inherit;fillColor=none;align=center;whiteSpace=wrap;html=1;" parent="NXXbfyBp3kHqgqcvMXdh-59" vertex="1">
          <mxGeometry x="49" width="52" height="42" as="geometry">
            <mxRectangle width="52" height="42" as="alternateBounds" />
          </mxGeometry>
        </mxCell>
        <mxCell id="NXXbfyBp3kHqgqcvMXdh-62" value="&lt;div&gt;Distance&lt;/div&gt;&lt;div&gt;KPr(n)&lt;br&gt;&lt;/div&gt;" style="connectable=0;recursiveResize=0;strokeColor=inherit;fillColor=none;align=center;whiteSpace=wrap;html=1;" parent="NXXbfyBp3kHqgqcvMXdh-59" vertex="1">
          <mxGeometry x="101" width="49" height="42" as="geometry">
            <mxRectangle width="49" height="42" as="alternateBounds" />
          </mxGeometry>
        </mxCell>
        <mxCell id="NXXbfyBp3kHqgqcvMXdh-63" style="shape=tableRow;horizontal=0;startSize=0;swimlaneHead=0;swimlaneBody=0;top=0;left=0;bottom=0;right=0;dropTarget=0;collapsible=0;recursiveResize=0;expand=0;fontStyle=0;fillColor=none;strokeColor=inherit;" parent="NXXbfyBp3kHqgqcvMXdh-54" vertex="1">
          <mxGeometry y="86" width="150" height="46" as="geometry" />
        </mxCell>
        <mxCell id="NXXbfyBp3kHqgqcvMXdh-64" value="&lt;div&gt;Distance&lt;/div&gt;&lt;div&gt;KPr(0)&lt;br&gt;&lt;/div&gt;" style="connectable=0;recursiveResize=0;strokeColor=inherit;fillColor=none;align=center;whiteSpace=wrap;html=1;" parent="NXXbfyBp3kHqgqcvMXdh-63" vertex="1">
          <mxGeometry width="49" height="46" as="geometry">
            <mxRectangle width="49" height="46" as="alternateBounds" />
          </mxGeometry>
        </mxCell>
        <mxCell id="NXXbfyBp3kHqgqcvMXdh-65" value="&lt;div&gt;Distance&lt;/div&gt;&lt;div&gt;KPr(1)&lt;br&gt;&lt;/div&gt;" style="connectable=0;recursiveResize=0;strokeColor=inherit;fillColor=none;align=center;whiteSpace=wrap;html=1;" parent="NXXbfyBp3kHqgqcvMXdh-63" vertex="1">
          <mxGeometry x="49" width="52" height="46" as="geometry">
            <mxRectangle width="52" height="46" as="alternateBounds" />
          </mxGeometry>
        </mxCell>
        <mxCell id="NXXbfyBp3kHqgqcvMXdh-66" value="&lt;div&gt;Distance&lt;/div&gt;&lt;div&gt;KPr(n)&lt;br&gt;&lt;/div&gt;" style="connectable=0;recursiveResize=0;strokeColor=inherit;fillColor=none;align=center;whiteSpace=wrap;html=1;" parent="NXXbfyBp3kHqgqcvMXdh-63" vertex="1">
          <mxGeometry x="101" width="49" height="46" as="geometry">
            <mxRectangle width="49" height="46" as="alternateBounds" />
          </mxGeometry>
        </mxCell>
        <mxCell id="NXXbfyBp3kHqgqcvMXdh-71" value="" style="endArrow=classic;html=1;rounded=0;" parent="1" edge="1">
          <mxGeometry width="50" height="50" relative="1" as="geometry">
            <mxPoint x="710" y="180" as="sourcePoint" />
            <mxPoint x="770" y="180" as="targetPoint" />
          </mxGeometry>
        </mxCell>
        <mxCell id="NXXbfyBp3kHqgqcvMXdh-72" value="" style="endArrow=classic;html=1;rounded=0;" parent="1" edge="1">
          <mxGeometry width="50" height="50" relative="1" as="geometry">
            <mxPoint x="710" y="218.16" as="sourcePoint" />
            <mxPoint x="770" y="218.16" as="targetPoint" />
          </mxGeometry>
        </mxCell>
        <mxCell id="NXXbfyBp3kHqgqcvMXdh-73" value="" style="endArrow=classic;html=1;rounded=0;" parent="1" edge="1">
          <mxGeometry width="50" height="50" relative="1" as="geometry">
            <mxPoint x="710" y="260" as="sourcePoint" />
            <mxPoint x="770" y="260" as="targetPoint" />
          </mxGeometry>
        </mxCell>
        <mxCell id="NXXbfyBp3kHqgqcvMXdh-74" value="" style="endArrow=none;dashed=1;html=1;dashPattern=1 3;strokeWidth=2;rounded=0;" parent="1" edge="1">
          <mxGeometry width="50" height="50" relative="1" as="geometry">
            <mxPoint x="740" y="260" as="sourcePoint" />
            <mxPoint x="740" y="90" as="targetPoint" />
          </mxGeometry>
        </mxCell>
        <mxCell id="NXXbfyBp3kHqgqcvMXdh-75" value="find minium distance()" style="text;html=1;align=center;verticalAlign=middle;whiteSpace=wrap;rounded=0;" parent="1" vertex="1">
          <mxGeometry x="680" y="60" width="125" height="30" as="geometry" />
        </mxCell>
        <mxCell id="NXXbfyBp3kHqgqcvMXdh-76" value="GPU-Algoritm" style="shape=hexagon;perimeter=hexagonPerimeter2;whiteSpace=wrap;html=1;fixedSize=1;strokeColor=#66FF66;" parent="1" vertex="1">
          <mxGeometry x="805" y="60" width="90" height="30" as="geometry" />
        </mxCell>
        <mxCell id="NXXbfyBp3kHqgqcvMXdh-77" value="" style="childLayout=tableLayout;recursiveResize=0;shadow=0;fillColor=none;" parent="1" vertex="1">
          <mxGeometry x="791.25" y="160" width="88.75" height="120" as="geometry" />
        </mxCell>
        <mxCell id="NXXbfyBp3kHqgqcvMXdh-78" value="" style="shape=tableRow;horizontal=0;startSize=0;swimlaneHead=0;swimlaneBody=0;top=0;left=0;bottom=0;right=0;dropTarget=0;collapsible=0;recursiveResize=0;expand=0;fontStyle=0;fillColor=none;strokeColor=inherit;" parent="NXXbfyBp3kHqgqcvMXdh-77" vertex="1">
          <mxGeometry width="88.75" height="40" as="geometry" />
        </mxCell>
        <mxCell id="NXXbfyBp3kHqgqcvMXdh-79" value="Min-dist(0)" style="connectable=0;recursiveResize=0;strokeColor=inherit;fillColor=none;align=center;whiteSpace=wrap;html=1;" parent="NXXbfyBp3kHqgqcvMXdh-78" vertex="1">
          <mxGeometry width="89" height="40" as="geometry">
            <mxRectangle width="89" height="40" as="alternateBounds" />
          </mxGeometry>
        </mxCell>
        <mxCell id="NXXbfyBp3kHqgqcvMXdh-82" style="shape=tableRow;horizontal=0;startSize=0;swimlaneHead=0;swimlaneBody=0;top=0;left=0;bottom=0;right=0;dropTarget=0;collapsible=0;recursiveResize=0;expand=0;fontStyle=0;fillColor=none;strokeColor=inherit;" parent="NXXbfyBp3kHqgqcvMXdh-77" vertex="1">
          <mxGeometry y="40" width="88.75" height="39" as="geometry" />
        </mxCell>
        <mxCell id="NXXbfyBp3kHqgqcvMXdh-83" value="Min-dist(1)" style="connectable=0;recursiveResize=0;strokeColor=inherit;fillColor=none;align=center;whiteSpace=wrap;html=1;" parent="NXXbfyBp3kHqgqcvMXdh-82" vertex="1">
          <mxGeometry width="89" height="39" as="geometry">
            <mxRectangle width="89" height="39" as="alternateBounds" />
          </mxGeometry>
        </mxCell>
        <mxCell id="NXXbfyBp3kHqgqcvMXdh-86" style="shape=tableRow;horizontal=0;startSize=0;swimlaneHead=0;swimlaneBody=0;top=0;left=0;bottom=0;right=0;dropTarget=0;collapsible=0;recursiveResize=0;expand=0;fontStyle=0;fillColor=none;strokeColor=inherit;" parent="NXXbfyBp3kHqgqcvMXdh-77" vertex="1">
          <mxGeometry y="79" width="88.75" height="41" as="geometry" />
        </mxCell>
        <mxCell id="NXXbfyBp3kHqgqcvMXdh-87" value="Min-dist(Nrows)" style="connectable=0;recursiveResize=0;strokeColor=inherit;fillColor=none;align=center;whiteSpace=wrap;html=1;" parent="NXXbfyBp3kHqgqcvMXdh-86" vertex="1">
          <mxGeometry width="89" height="41" as="geometry">
            <mxRectangle width="89" height="41" as="alternateBounds" />
          </mxGeometry>
        </mxCell>
        <mxCell id="NXXbfyBp3kHqgqcvMXdh-90" value="" style="endArrow=classic;html=1;rounded=0;" parent="1" edge="1">
          <mxGeometry width="50" height="50" relative="1" as="geometry">
            <mxPoint x="840" y="300" as="sourcePoint" />
            <mxPoint x="840" y="340" as="targetPoint" />
          </mxGeometry>
        </mxCell>
        <mxCell id="NXXbfyBp3kHqgqcvMXdh-91" value="sort()" style="text;html=1;align=center;verticalAlign=middle;whiteSpace=wrap;rounded=0;" parent="1" vertex="1">
          <mxGeometry x="805" y="300" width="125" height="30" as="geometry" />
        </mxCell>
        <mxCell id="NXXbfyBp3kHqgqcvMXdh-92" value="" style="childLayout=tableLayout;recursiveResize=0;shadow=0;fillColor=none;" parent="1" vertex="1">
          <mxGeometry x="760" y="360" width="200" height="40" as="geometry" />
        </mxCell>
        <mxCell id="NXXbfyBp3kHqgqcvMXdh-114" style="shape=tableRow;horizontal=0;startSize=0;swimlaneHead=0;swimlaneBody=0;top=0;left=0;bottom=0;right=0;dropTarget=0;collapsible=0;recursiveResize=0;expand=0;fontStyle=0;fillColor=none;strokeColor=inherit;" parent="NXXbfyBp3kHqgqcvMXdh-92" vertex="1">
          <mxGeometry width="200" height="40" as="geometry" />
        </mxCell>
        <mxCell id="NXXbfyBp3kHqgqcvMXdh-115" value="Min-dist(0)" style="connectable=0;recursiveResize=0;strokeColor=inherit;fillColor=none;align=center;whiteSpace=wrap;html=1;" parent="NXXbfyBp3kHqgqcvMXdh-114" vertex="1">
          <mxGeometry width="67" height="40" as="geometry">
            <mxRectangle width="67" height="40" as="alternateBounds" />
          </mxGeometry>
        </mxCell>
        <mxCell id="NXXbfyBp3kHqgqcvMXdh-120" value="Min-dist(1)" style="connectable=0;recursiveResize=0;strokeColor=inherit;fillColor=none;align=center;whiteSpace=wrap;html=1;" parent="NXXbfyBp3kHqgqcvMXdh-114" vertex="1">
          <mxGeometry x="67" width="67" height="40" as="geometry">
            <mxRectangle width="67" height="40" as="alternateBounds" />
          </mxGeometry>
        </mxCell>
        <mxCell id="NXXbfyBp3kHqgqcvMXdh-121" value="Min-dist(Nrows)" style="connectable=0;recursiveResize=0;strokeColor=inherit;fillColor=none;align=center;whiteSpace=wrap;html=1;" parent="NXXbfyBp3kHqgqcvMXdh-114" vertex="1">
          <mxGeometry x="134" width="66" height="40" as="geometry">
            <mxRectangle width="66" height="40" as="alternateBounds" />
          </mxGeometry>
        </mxCell>
        <mxCell id="kKBqGEHmE_c0qirGsI-s-17" style="edgeStyle=orthogonalEdgeStyle;rounded=0;orthogonalLoop=1;jettySize=auto;html=1;exitX=1;exitY=0.5;exitDx=0;exitDy=0;" parent="1" source="kKBqGEHmE_c0qirGsI-s-18" target="kKBqGEHmE_c0qirGsI-s-21" edge="1">
          <mxGeometry relative="1" as="geometry">
            <mxPoint x="160" y="632" as="targetPoint" />
          </mxGeometry>
        </mxCell>
        <mxCell id="kKBqGEHmE_c0qirGsI-s-18" value="" style="whiteSpace=wrap;html=1;aspect=fixed;" parent="1" vertex="1">
          <mxGeometry x="70" y="626.5" width="10" height="10" as="geometry" />
        </mxCell>
        <mxCell id="kKBqGEHmE_c0qirGsI-s-19" value="Vcandidates[ ]" style="text;html=1;align=center;verticalAlign=middle;whiteSpace=wrap;rounded=0;" parent="1" vertex="1">
          <mxGeometry x="45" y="596.5" width="85" height="30" as="geometry" />
        </mxCell>
        <mxCell id="kKBqGEHmE_c0qirGsI-s-20" value="" style="shape=curlyBracket;whiteSpace=wrap;html=1;rounded=1;labelPosition=left;verticalLabelPosition=middle;align=right;verticalAlign=middle;" parent="1" vertex="1">
          <mxGeometry x="200" y="563" width="20" height="137" as="geometry" />
        </mxCell>
        <mxCell id="kKBqGEHmE_c0qirGsI-s-21" value="Nrows" style="text;html=1;align=center;verticalAlign=middle;whiteSpace=wrap;rounded=0;" parent="1" vertex="1">
          <mxGeometry x="150" y="616.5" width="60" height="30" as="geometry" />
        </mxCell>
        <mxCell id="kKBqGEHmE_c0qirGsI-s-22" value="" style="shape=table;startSize=0;container=1;collapsible=0;childLayout=tableLayout;fontSize=16;" parent="1" vertex="1">
          <mxGeometry x="243" y="566" width="105" height="28" as="geometry" />
        </mxCell>
        <mxCell id="kKBqGEHmE_c0qirGsI-s-23" value="" style="shape=tableRow;horizontal=0;startSize=0;swimlaneHead=0;swimlaneBody=0;strokeColor=inherit;top=0;left=0;bottom=0;right=0;collapsible=0;dropTarget=0;fillColor=none;points=[[0,0.5],[1,0.5]];portConstraint=eastwest;fontSize=16;" parent="kKBqGEHmE_c0qirGsI-s-22" vertex="1">
          <mxGeometry width="105" height="28" as="geometry" />
        </mxCell>
        <mxCell id="kKBqGEHmE_c0qirGsI-s-24" value="3" style="shape=partialRectangle;html=1;whiteSpace=wrap;connectable=0;strokeColor=inherit;overflow=hidden;fillColor=none;top=0;left=0;bottom=0;right=0;pointerEvents=1;fontSize=16;" parent="kKBqGEHmE_c0qirGsI-s-23" vertex="1">
          <mxGeometry width="35" height="28" as="geometry">
            <mxRectangle width="35" height="28" as="alternateBounds" />
          </mxGeometry>
        </mxCell>
        <mxCell id="kKBqGEHmE_c0qirGsI-s-35" value="7" style="shape=partialRectangle;html=1;whiteSpace=wrap;connectable=0;strokeColor=inherit;overflow=hidden;fillColor=none;top=0;left=0;bottom=0;right=0;pointerEvents=1;fontSize=16;" parent="kKBqGEHmE_c0qirGsI-s-23" vertex="1">
          <mxGeometry x="35" width="35" height="28" as="geometry">
            <mxRectangle width="35" height="28" as="alternateBounds" />
          </mxGeometry>
        </mxCell>
        <mxCell id="kKBqGEHmE_c0qirGsI-s-60" value="15" style="shape=partialRectangle;html=1;whiteSpace=wrap;connectable=0;strokeColor=inherit;overflow=hidden;fillColor=none;top=0;left=0;bottom=0;right=0;pointerEvents=1;fontSize=16;" parent="kKBqGEHmE_c0qirGsI-s-23" vertex="1">
          <mxGeometry x="70" width="35" height="28" as="geometry">
            <mxRectangle width="35" height="28" as="alternateBounds" />
          </mxGeometry>
        </mxCell>
        <mxCell id="kKBqGEHmE_c0qirGsI-s-48" value="" style="shape=table;startSize=0;container=1;collapsible=0;childLayout=tableLayout;fontSize=16;" parent="1" vertex="1">
          <mxGeometry x="243" y="600.5" width="140" height="28" as="geometry" />
        </mxCell>
        <mxCell id="kKBqGEHmE_c0qirGsI-s-49" value="" style="shape=tableRow;horizontal=0;startSize=0;swimlaneHead=0;swimlaneBody=0;strokeColor=inherit;top=0;left=0;bottom=0;right=0;collapsible=0;dropTarget=0;fillColor=none;points=[[0,0.5],[1,0.5]];portConstraint=eastwest;fontSize=16;" parent="kKBqGEHmE_c0qirGsI-s-48" vertex="1">
          <mxGeometry width="140" height="28" as="geometry" />
        </mxCell>
        <mxCell id="kKBqGEHmE_c0qirGsI-s-50" value="5" style="shape=partialRectangle;html=1;whiteSpace=wrap;connectable=0;strokeColor=inherit;overflow=hidden;fillColor=none;top=0;left=0;bottom=0;right=0;pointerEvents=1;fontSize=16;" parent="kKBqGEHmE_c0qirGsI-s-49" vertex="1">
          <mxGeometry width="35" height="28" as="geometry">
            <mxRectangle width="35" height="28" as="alternateBounds" />
          </mxGeometry>
        </mxCell>
        <mxCell id="kKBqGEHmE_c0qirGsI-s-51" value="6" style="shape=partialRectangle;html=1;whiteSpace=wrap;connectable=0;strokeColor=inherit;overflow=hidden;fillColor=none;top=0;left=0;bottom=0;right=0;pointerEvents=1;fontSize=16;" parent="kKBqGEHmE_c0qirGsI-s-49" vertex="1">
          <mxGeometry x="35" width="35" height="28" as="geometry">
            <mxRectangle width="35" height="28" as="alternateBounds" />
          </mxGeometry>
        </mxCell>
        <mxCell id="kKBqGEHmE_c0qirGsI-s-61" value="12" style="shape=partialRectangle;html=1;whiteSpace=wrap;connectable=0;strokeColor=inherit;overflow=hidden;fillColor=none;top=0;left=0;bottom=0;right=0;pointerEvents=1;fontSize=16;" parent="kKBqGEHmE_c0qirGsI-s-49" vertex="1">
          <mxGeometry x="70" width="35" height="28" as="geometry">
            <mxRectangle width="35" height="28" as="alternateBounds" />
          </mxGeometry>
        </mxCell>
        <mxCell id="kKBqGEHmE_c0qirGsI-s-62" value="22" style="shape=partialRectangle;html=1;whiteSpace=wrap;connectable=0;strokeColor=inherit;overflow=hidden;fillColor=none;top=0;left=0;bottom=0;right=0;pointerEvents=1;fontSize=16;" parent="kKBqGEHmE_c0qirGsI-s-49" vertex="1">
          <mxGeometry x="105" width="35" height="28" as="geometry">
            <mxRectangle width="35" height="28" as="alternateBounds" />
          </mxGeometry>
        </mxCell>
        <mxCell id="kKBqGEHmE_c0qirGsI-s-52" value="" style="shape=table;startSize=0;container=1;collapsible=0;childLayout=tableLayout;fontSize=16;" parent="1" vertex="1">
          <mxGeometry x="243" y="636" width="105" height="28" as="geometry" />
        </mxCell>
        <mxCell id="kKBqGEHmE_c0qirGsI-s-53" value="" style="shape=tableRow;horizontal=0;startSize=0;swimlaneHead=0;swimlaneBody=0;strokeColor=inherit;top=0;left=0;bottom=0;right=0;collapsible=0;dropTarget=0;fillColor=none;points=[[0,0.5],[1,0.5]];portConstraint=eastwest;fontSize=16;" parent="kKBqGEHmE_c0qirGsI-s-52" vertex="1">
          <mxGeometry width="105" height="28" as="geometry" />
        </mxCell>
        <mxCell id="kKBqGEHmE_c0qirGsI-s-54" value="2" style="shape=partialRectangle;html=1;whiteSpace=wrap;connectable=0;strokeColor=inherit;overflow=hidden;fillColor=none;top=0;left=0;bottom=0;right=0;pointerEvents=1;fontSize=16;" parent="kKBqGEHmE_c0qirGsI-s-53" vertex="1">
          <mxGeometry width="35" height="28" as="geometry">
            <mxRectangle width="35" height="28" as="alternateBounds" />
          </mxGeometry>
        </mxCell>
        <mxCell id="kKBqGEHmE_c0qirGsI-s-55" value="8" style="shape=partialRectangle;html=1;whiteSpace=wrap;connectable=0;strokeColor=inherit;overflow=hidden;fillColor=none;top=0;left=0;bottom=0;right=0;pointerEvents=1;fontSize=16;" parent="kKBqGEHmE_c0qirGsI-s-53" vertex="1">
          <mxGeometry x="35" width="35" height="28" as="geometry">
            <mxRectangle width="35" height="28" as="alternateBounds" />
          </mxGeometry>
        </mxCell>
        <mxCell id="kKBqGEHmE_c0qirGsI-s-63" value="9" style="shape=partialRectangle;html=1;whiteSpace=wrap;connectable=0;strokeColor=inherit;overflow=hidden;fillColor=none;top=0;left=0;bottom=0;right=0;pointerEvents=1;fontSize=16;" parent="kKBqGEHmE_c0qirGsI-s-53" vertex="1">
          <mxGeometry x="70" width="35" height="28" as="geometry">
            <mxRectangle width="35" height="28" as="alternateBounds" />
          </mxGeometry>
        </mxCell>
        <mxCell id="kKBqGEHmE_c0qirGsI-s-56" value="" style="shape=table;startSize=0;container=1;collapsible=0;childLayout=tableLayout;fontSize=16;" parent="1" vertex="1">
          <mxGeometry x="243" y="673" width="70" height="28" as="geometry" />
        </mxCell>
        <mxCell id="kKBqGEHmE_c0qirGsI-s-57" value="" style="shape=tableRow;horizontal=0;startSize=0;swimlaneHead=0;swimlaneBody=0;strokeColor=inherit;top=0;left=0;bottom=0;right=0;collapsible=0;dropTarget=0;fillColor=none;points=[[0,0.5],[1,0.5]];portConstraint=eastwest;fontSize=16;" parent="kKBqGEHmE_c0qirGsI-s-56" vertex="1">
          <mxGeometry width="70" height="28" as="geometry" />
        </mxCell>
        <mxCell id="kKBqGEHmE_c0qirGsI-s-58" value="6" style="shape=partialRectangle;html=1;whiteSpace=wrap;connectable=0;strokeColor=inherit;overflow=hidden;fillColor=none;top=0;left=0;bottom=0;right=0;pointerEvents=1;fontSize=16;" parent="kKBqGEHmE_c0qirGsI-s-57" vertex="1">
          <mxGeometry width="35" height="28" as="geometry">
            <mxRectangle width="35" height="28" as="alternateBounds" />
          </mxGeometry>
        </mxCell>
        <mxCell id="kKBqGEHmE_c0qirGsI-s-59" value="7" style="shape=partialRectangle;html=1;whiteSpace=wrap;connectable=0;strokeColor=inherit;overflow=hidden;fillColor=none;top=0;left=0;bottom=0;right=0;pointerEvents=1;fontSize=16;" parent="kKBqGEHmE_c0qirGsI-s-57" vertex="1">
          <mxGeometry x="35" width="35" height="28" as="geometry">
            <mxRectangle width="35" height="28" as="alternateBounds" />
          </mxGeometry>
        </mxCell>
        <mxCell id="kKBqGEHmE_c0qirGsI-s-64" value="" style="endArrow=classic;html=1;rounded=0;" parent="1" edge="1">
          <mxGeometry width="50" height="50" relative="1" as="geometry">
            <mxPoint x="400" y="608" as="sourcePoint" />
            <mxPoint x="460" y="608" as="targetPoint" />
          </mxGeometry>
        </mxCell>
        <mxCell id="kKBqGEHmE_c0qirGsI-s-65" value="" style="endArrow=classic;html=1;rounded=0;" parent="1" edge="1">
          <mxGeometry width="50" height="50" relative="1" as="geometry">
            <mxPoint x="400" y="646.16" as="sourcePoint" />
            <mxPoint x="460" y="646.16" as="targetPoint" />
          </mxGeometry>
        </mxCell>
        <mxCell id="kKBqGEHmE_c0qirGsI-s-66" value="" style="endArrow=classic;html=1;rounded=0;" parent="1" edge="1">
          <mxGeometry width="50" height="50" relative="1" as="geometry">
            <mxPoint x="400" y="688" as="sourcePoint" />
            <mxPoint x="460" y="688" as="targetPoint" />
          </mxGeometry>
        </mxCell>
        <mxCell id="kKBqGEHmE_c0qirGsI-s-67" value="" style="endArrow=none;dashed=1;html=1;dashPattern=1 3;strokeWidth=2;rounded=0;" parent="1" edge="1">
          <mxGeometry width="50" height="50" relative="1" as="geometry">
            <mxPoint x="430" y="688" as="sourcePoint" />
            <mxPoint x="430" y="518" as="targetPoint" />
          </mxGeometry>
        </mxCell>
        <mxCell id="kKBqGEHmE_c0qirGsI-s-68" value="" style="endArrow=classic;html=1;rounded=0;" parent="1" edge="1">
          <mxGeometry width="50" height="50" relative="1" as="geometry">
            <mxPoint x="398" y="572" as="sourcePoint" />
            <mxPoint x="458" y="572" as="targetPoint" />
          </mxGeometry>
        </mxCell>
        <mxCell id="kKBqGEHmE_c0qirGsI-s-69" value="multiplicate each element for line index()+1" style="text;html=1;align=center;verticalAlign=middle;whiteSpace=wrap;rounded=0;" parent="1" vertex="1">
          <mxGeometry x="365.5" y="474" width="150" height="38" as="geometry" />
        </mxCell>
        <mxCell id="kKBqGEHmE_c0qirGsI-s-70" value="GPU-Algoritm" style="shape=hexagon;perimeter=hexagonPerimeter2;whiteSpace=wrap;html=1;fixedSize=1;strokeColor=#66FF66;" parent="1" vertex="1">
          <mxGeometry x="395.5" y="440" width="90" height="30" as="geometry" />
        </mxCell>
        <mxCell id="kKBqGEHmE_c0qirGsI-s-71" value="" style="shape=table;startSize=0;container=1;collapsible=0;childLayout=tableLayout;fontSize=16;" parent="1" vertex="1">
          <mxGeometry x="475" y="564" width="105" height="28" as="geometry" />
        </mxCell>
        <mxCell id="kKBqGEHmE_c0qirGsI-s-72" value="" style="shape=tableRow;horizontal=0;startSize=0;swimlaneHead=0;swimlaneBody=0;strokeColor=inherit;top=0;left=0;bottom=0;right=0;collapsible=0;dropTarget=0;fillColor=none;points=[[0,0.5],[1,0.5]];portConstraint=eastwest;fontSize=16;" parent="kKBqGEHmE_c0qirGsI-s-71" vertex="1">
          <mxGeometry width="105" height="28" as="geometry" />
        </mxCell>
        <mxCell id="kKBqGEHmE_c0qirGsI-s-73" value="3" style="shape=partialRectangle;html=1;whiteSpace=wrap;connectable=0;strokeColor=inherit;overflow=hidden;fillColor=none;top=0;left=0;bottom=0;right=0;pointerEvents=1;fontSize=16;" parent="kKBqGEHmE_c0qirGsI-s-72" vertex="1">
          <mxGeometry width="35" height="28" as="geometry">
            <mxRectangle width="35" height="28" as="alternateBounds" />
          </mxGeometry>
        </mxCell>
        <mxCell id="kKBqGEHmE_c0qirGsI-s-74" value="7" style="shape=partialRectangle;html=1;whiteSpace=wrap;connectable=0;strokeColor=inherit;overflow=hidden;fillColor=none;top=0;left=0;bottom=0;right=0;pointerEvents=1;fontSize=16;" parent="kKBqGEHmE_c0qirGsI-s-72" vertex="1">
          <mxGeometry x="35" width="35" height="28" as="geometry">
            <mxRectangle width="35" height="28" as="alternateBounds" />
          </mxGeometry>
        </mxCell>
        <mxCell id="kKBqGEHmE_c0qirGsI-s-75" value="15" style="shape=partialRectangle;html=1;whiteSpace=wrap;connectable=0;strokeColor=inherit;overflow=hidden;fillColor=none;top=0;left=0;bottom=0;right=0;pointerEvents=1;fontSize=16;" parent="kKBqGEHmE_c0qirGsI-s-72" vertex="1">
          <mxGeometry x="70" width="35" height="28" as="geometry">
            <mxRectangle width="35" height="28" as="alternateBounds" />
          </mxGeometry>
        </mxCell>
        <mxCell id="kKBqGEHmE_c0qirGsI-s-76" value="" style="shape=table;startSize=0;container=1;collapsible=0;childLayout=tableLayout;fontSize=16;" parent="1" vertex="1">
          <mxGeometry x="475" y="598.5" width="140" height="28" as="geometry" />
        </mxCell>
        <mxCell id="kKBqGEHmE_c0qirGsI-s-77" value="" style="shape=tableRow;horizontal=0;startSize=0;swimlaneHead=0;swimlaneBody=0;strokeColor=inherit;top=0;left=0;bottom=0;right=0;collapsible=0;dropTarget=0;fillColor=none;points=[[0,0.5],[1,0.5]];portConstraint=eastwest;fontSize=16;" parent="kKBqGEHmE_c0qirGsI-s-76" vertex="1">
          <mxGeometry width="140" height="28" as="geometry" />
        </mxCell>
        <mxCell id="kKBqGEHmE_c0qirGsI-s-78" value="10" style="shape=partialRectangle;html=1;whiteSpace=wrap;connectable=0;strokeColor=inherit;overflow=hidden;fillColor=none;top=0;left=0;bottom=0;right=0;pointerEvents=1;fontSize=16;" parent="kKBqGEHmE_c0qirGsI-s-77" vertex="1">
          <mxGeometry width="35" height="28" as="geometry">
            <mxRectangle width="35" height="28" as="alternateBounds" />
          </mxGeometry>
        </mxCell>
        <mxCell id="kKBqGEHmE_c0qirGsI-s-79" value="12" style="shape=partialRectangle;html=1;whiteSpace=wrap;connectable=0;strokeColor=inherit;overflow=hidden;fillColor=none;top=0;left=0;bottom=0;right=0;pointerEvents=1;fontSize=16;" parent="kKBqGEHmE_c0qirGsI-s-77" vertex="1">
          <mxGeometry x="35" width="35" height="28" as="geometry">
            <mxRectangle width="35" height="28" as="alternateBounds" />
          </mxGeometry>
        </mxCell>
        <mxCell id="kKBqGEHmE_c0qirGsI-s-80" value="24" style="shape=partialRectangle;html=1;whiteSpace=wrap;connectable=0;strokeColor=inherit;overflow=hidden;fillColor=none;top=0;left=0;bottom=0;right=0;pointerEvents=1;fontSize=16;" parent="kKBqGEHmE_c0qirGsI-s-77" vertex="1">
          <mxGeometry x="70" width="35" height="28" as="geometry">
            <mxRectangle width="35" height="28" as="alternateBounds" />
          </mxGeometry>
        </mxCell>
        <mxCell id="kKBqGEHmE_c0qirGsI-s-81" value="44" style="shape=partialRectangle;html=1;whiteSpace=wrap;connectable=0;strokeColor=inherit;overflow=hidden;fillColor=none;top=0;left=0;bottom=0;right=0;pointerEvents=1;fontSize=16;" parent="kKBqGEHmE_c0qirGsI-s-77" vertex="1">
          <mxGeometry x="105" width="35" height="28" as="geometry">
            <mxRectangle width="35" height="28" as="alternateBounds" />
          </mxGeometry>
        </mxCell>
        <mxCell id="kKBqGEHmE_c0qirGsI-s-82" value="" style="shape=table;startSize=0;container=1;collapsible=0;childLayout=tableLayout;fontSize=16;" parent="1" vertex="1">
          <mxGeometry x="475" y="634" width="105" height="28" as="geometry" />
        </mxCell>
        <mxCell id="kKBqGEHmE_c0qirGsI-s-83" value="" style="shape=tableRow;horizontal=0;startSize=0;swimlaneHead=0;swimlaneBody=0;strokeColor=inherit;top=0;left=0;bottom=0;right=0;collapsible=0;dropTarget=0;fillColor=none;points=[[0,0.5],[1,0.5]];portConstraint=eastwest;fontSize=16;" parent="kKBqGEHmE_c0qirGsI-s-82" vertex="1">
          <mxGeometry width="105" height="28" as="geometry" />
        </mxCell>
        <mxCell id="kKBqGEHmE_c0qirGsI-s-84" value="6" style="shape=partialRectangle;html=1;whiteSpace=wrap;connectable=0;strokeColor=inherit;overflow=hidden;fillColor=none;top=0;left=0;bottom=0;right=0;pointerEvents=1;fontSize=16;" parent="kKBqGEHmE_c0qirGsI-s-83" vertex="1">
          <mxGeometry width="35" height="28" as="geometry">
            <mxRectangle width="35" height="28" as="alternateBounds" />
          </mxGeometry>
        </mxCell>
        <mxCell id="kKBqGEHmE_c0qirGsI-s-85" value="24" style="shape=partialRectangle;html=1;whiteSpace=wrap;connectable=0;strokeColor=inherit;overflow=hidden;fillColor=none;top=0;left=0;bottom=0;right=0;pointerEvents=1;fontSize=16;" parent="kKBqGEHmE_c0qirGsI-s-83" vertex="1">
          <mxGeometry x="35" width="35" height="28" as="geometry">
            <mxRectangle width="35" height="28" as="alternateBounds" />
          </mxGeometry>
        </mxCell>
        <mxCell id="kKBqGEHmE_c0qirGsI-s-86" value="27" style="shape=partialRectangle;html=1;whiteSpace=wrap;connectable=0;strokeColor=inherit;overflow=hidden;fillColor=none;top=0;left=0;bottom=0;right=0;pointerEvents=1;fontSize=16;" parent="kKBqGEHmE_c0qirGsI-s-83" vertex="1">
          <mxGeometry x="70" width="35" height="28" as="geometry">
            <mxRectangle width="35" height="28" as="alternateBounds" />
          </mxGeometry>
        </mxCell>
        <mxCell id="kKBqGEHmE_c0qirGsI-s-87" value="" style="shape=table;startSize=0;container=1;collapsible=0;childLayout=tableLayout;fontSize=16;" parent="1" vertex="1">
          <mxGeometry x="475" y="671" width="70" height="28" as="geometry" />
        </mxCell>
        <mxCell id="kKBqGEHmE_c0qirGsI-s-88" value="" style="shape=tableRow;horizontal=0;startSize=0;swimlaneHead=0;swimlaneBody=0;strokeColor=inherit;top=0;left=0;bottom=0;right=0;collapsible=0;dropTarget=0;fillColor=none;points=[[0,0.5],[1,0.5]];portConstraint=eastwest;fontSize=16;" parent="kKBqGEHmE_c0qirGsI-s-87" vertex="1">
          <mxGeometry width="70" height="28" as="geometry" />
        </mxCell>
        <mxCell id="kKBqGEHmE_c0qirGsI-s-89" value="24" style="shape=partialRectangle;html=1;whiteSpace=wrap;connectable=0;strokeColor=inherit;overflow=hidden;fillColor=none;top=0;left=0;bottom=0;right=0;pointerEvents=1;fontSize=16;" parent="kKBqGEHmE_c0qirGsI-s-88" vertex="1">
          <mxGeometry width="35" height="28" as="geometry">
            <mxRectangle width="35" height="28" as="alternateBounds" />
          </mxGeometry>
        </mxCell>
        <mxCell id="kKBqGEHmE_c0qirGsI-s-90" value="28" style="shape=partialRectangle;html=1;whiteSpace=wrap;connectable=0;strokeColor=inherit;overflow=hidden;fillColor=none;top=0;left=0;bottom=0;right=0;pointerEvents=1;fontSize=16;" parent="kKBqGEHmE_c0qirGsI-s-88" vertex="1">
          <mxGeometry x="35" width="35" height="28" as="geometry">
            <mxRectangle width="35" height="28" as="alternateBounds" />
          </mxGeometry>
        </mxCell>
        <mxCell id="kKBqGEHmE_c0qirGsI-s-91" value="" style="endArrow=classic;html=1;rounded=0;" parent="1" edge="1">
          <mxGeometry width="50" height="50" relative="1" as="geometry">
            <mxPoint x="626" y="606" as="sourcePoint" />
            <mxPoint x="686" y="606" as="targetPoint" />
          </mxGeometry>
        </mxCell>
        <mxCell id="kKBqGEHmE_c0qirGsI-s-92" value="" style="endArrow=classic;html=1;rounded=0;" parent="1" edge="1">
          <mxGeometry width="50" height="50" relative="1" as="geometry">
            <mxPoint x="626" y="644.16" as="sourcePoint" />
            <mxPoint x="686" y="644.16" as="targetPoint" />
          </mxGeometry>
        </mxCell>
        <mxCell id="kKBqGEHmE_c0qirGsI-s-93" value="" style="endArrow=classic;html=1;rounded=0;" parent="1" edge="1">
          <mxGeometry width="50" height="50" relative="1" as="geometry">
            <mxPoint x="626" y="686" as="sourcePoint" />
            <mxPoint x="686" y="686" as="targetPoint" />
          </mxGeometry>
        </mxCell>
        <mxCell id="kKBqGEHmE_c0qirGsI-s-94" value="" style="endArrow=none;dashed=1;html=1;dashPattern=1 3;strokeWidth=2;rounded=0;" parent="1" edge="1">
          <mxGeometry width="50" height="50" relative="1" as="geometry">
            <mxPoint x="656" y="686" as="sourcePoint" />
            <mxPoint x="656" y="516" as="targetPoint" />
          </mxGeometry>
        </mxCell>
        <mxCell id="kKBqGEHmE_c0qirGsI-s-95" value="" style="endArrow=classic;html=1;rounded=0;" parent="1" edge="1">
          <mxGeometry width="50" height="50" relative="1" as="geometry">
            <mxPoint x="624" y="570" as="sourcePoint" />
            <mxPoint x="684" y="570" as="targetPoint" />
          </mxGeometry>
        </mxCell>
        <mxCell id="kKBqGEHmE_c0qirGsI-s-97" value="find minium element ()" style="text;html=1;align=center;verticalAlign=middle;whiteSpace=wrap;rounded=0;" parent="1" vertex="1">
          <mxGeometry x="595" y="474" width="125" height="30" as="geometry" />
        </mxCell>
        <mxCell id="kKBqGEHmE_c0qirGsI-s-98" value="GPU-Algoritm" style="shape=hexagon;perimeter=hexagonPerimeter2;whiteSpace=wrap;html=1;fixedSize=1;strokeColor=#66FF66;" parent="1" vertex="1">
          <mxGeometry x="612.5" y="438" width="90" height="30" as="geometry" />
        </mxCell>
        <mxCell id="kKBqGEHmE_c0qirGsI-s-99" value="" style="shape=table;startSize=0;container=1;collapsible=0;childLayout=tableLayout;fontSize=16;" parent="1" vertex="1">
          <mxGeometry x="702.5" y="563" width="32.5" height="136" as="geometry" />
        </mxCell>
        <mxCell id="kKBqGEHmE_c0qirGsI-s-112" style="shape=tableRow;horizontal=0;startSize=0;swimlaneHead=0;swimlaneBody=0;strokeColor=inherit;top=0;left=0;bottom=0;right=0;collapsible=0;dropTarget=0;fillColor=none;points=[[0,0.5],[1,0.5]];portConstraint=eastwest;fontSize=16;" parent="kKBqGEHmE_c0qirGsI-s-99" vertex="1">
          <mxGeometry width="32.5" height="33" as="geometry" />
        </mxCell>
        <mxCell id="kKBqGEHmE_c0qirGsI-s-113" value="3" style="shape=partialRectangle;html=1;whiteSpace=wrap;connectable=0;strokeColor=inherit;overflow=hidden;fillColor=none;top=0;left=0;bottom=0;right=0;pointerEvents=1;fontSize=16;" parent="kKBqGEHmE_c0qirGsI-s-112" vertex="1">
          <mxGeometry width="33" height="33" as="geometry">
            <mxRectangle width="33" height="33" as="alternateBounds" />
          </mxGeometry>
        </mxCell>
        <mxCell id="kKBqGEHmE_c0qirGsI-s-100" value="" style="shape=tableRow;horizontal=0;startSize=0;swimlaneHead=0;swimlaneBody=0;strokeColor=inherit;top=0;left=0;bottom=0;right=0;collapsible=0;dropTarget=0;fillColor=none;points=[[0,0.5],[1,0.5]];portConstraint=eastwest;fontSize=16;" parent="kKBqGEHmE_c0qirGsI-s-99" vertex="1">
          <mxGeometry y="33" width="32.5" height="33" as="geometry" />
        </mxCell>
        <mxCell id="kKBqGEHmE_c0qirGsI-s-101" value="10" style="shape=partialRectangle;html=1;whiteSpace=wrap;connectable=0;strokeColor=inherit;overflow=hidden;fillColor=none;top=0;left=0;bottom=0;right=0;pointerEvents=1;fontSize=16;" parent="kKBqGEHmE_c0qirGsI-s-100" vertex="1">
          <mxGeometry width="33" height="33" as="geometry">
            <mxRectangle width="33" height="33" as="alternateBounds" />
          </mxGeometry>
        </mxCell>
        <mxCell id="kKBqGEHmE_c0qirGsI-s-104" value="" style="shape=tableRow;horizontal=0;startSize=0;swimlaneHead=0;swimlaneBody=0;strokeColor=inherit;top=0;left=0;bottom=0;right=0;collapsible=0;dropTarget=0;fillColor=none;points=[[0,0.5],[1,0.5]];portConstraint=eastwest;fontSize=16;" parent="kKBqGEHmE_c0qirGsI-s-99" vertex="1">
          <mxGeometry y="66" width="32.5" height="36" as="geometry" />
        </mxCell>
        <mxCell id="kKBqGEHmE_c0qirGsI-s-105" value="6" style="shape=partialRectangle;html=1;whiteSpace=wrap;connectable=0;strokeColor=inherit;overflow=hidden;fillColor=none;top=0;left=0;bottom=0;right=0;pointerEvents=1;fontSize=16;" parent="kKBqGEHmE_c0qirGsI-s-104" vertex="1">
          <mxGeometry width="33" height="36" as="geometry">
            <mxRectangle width="33" height="36" as="alternateBounds" />
          </mxGeometry>
        </mxCell>
        <mxCell id="kKBqGEHmE_c0qirGsI-s-108" value="" style="shape=tableRow;horizontal=0;startSize=0;swimlaneHead=0;swimlaneBody=0;strokeColor=inherit;top=0;left=0;bottom=0;right=0;collapsible=0;dropTarget=0;fillColor=none;points=[[0,0.5],[1,0.5]];portConstraint=eastwest;fontSize=16;" parent="kKBqGEHmE_c0qirGsI-s-99" vertex="1">
          <mxGeometry y="102" width="32.5" height="34" as="geometry" />
        </mxCell>
        <mxCell id="kKBqGEHmE_c0qirGsI-s-109" value="24" style="shape=partialRectangle;html=1;whiteSpace=wrap;connectable=0;strokeColor=inherit;overflow=hidden;fillColor=none;top=0;left=0;bottom=0;right=0;pointerEvents=1;fontSize=16;" parent="kKBqGEHmE_c0qirGsI-s-108" vertex="1">
          <mxGeometry width="33" height="34" as="geometry">
            <mxRectangle width="33" height="34" as="alternateBounds" />
          </mxGeometry>
        </mxCell>
        <mxCell id="kKBqGEHmE_c0qirGsI-s-114" value="" style="endArrow=classic;html=1;rounded=0;" parent="1" edge="1">
          <mxGeometry width="50" height="50" relative="1" as="geometry">
            <mxPoint x="719" y="707" as="sourcePoint" />
            <mxPoint x="719" y="747" as="targetPoint" />
          </mxGeometry>
        </mxCell>
        <mxCell id="kKBqGEHmE_c0qirGsI-s-115" value="sort()" style="text;html=1;align=center;verticalAlign=middle;whiteSpace=wrap;rounded=0;" parent="1" vertex="1">
          <mxGeometry x="684" y="707" width="125" height="30" as="geometry" />
        </mxCell>
        <mxCell id="kKBqGEHmE_c0qirGsI-s-116" value="" style="childLayout=tableLayout;recursiveResize=0;shadow=0;fillColor=none;" parent="1" vertex="1">
          <mxGeometry x="647" y="758" width="152" height="30" as="geometry" />
        </mxCell>
        <mxCell id="kKBqGEHmE_c0qirGsI-s-117" style="shape=tableRow;horizontal=0;startSize=0;swimlaneHead=0;swimlaneBody=0;top=0;left=0;bottom=0;right=0;dropTarget=0;collapsible=0;recursiveResize=0;expand=0;fontStyle=0;fillColor=none;strokeColor=inherit;" parent="kKBqGEHmE_c0qirGsI-s-116" vertex="1">
          <mxGeometry width="152" height="30" as="geometry" />
        </mxCell>
        <mxCell id="kKBqGEHmE_c0qirGsI-s-118" value="4" style="connectable=0;recursiveResize=0;strokeColor=inherit;fillColor=none;align=center;whiteSpace=wrap;html=1;" parent="kKBqGEHmE_c0qirGsI-s-117" vertex="1">
          <mxGeometry width="38" height="30" as="geometry">
            <mxRectangle width="38" height="30" as="alternateBounds" />
          </mxGeometry>
        </mxCell>
        <mxCell id="kKBqGEHmE_c0qirGsI-s-119" value="6" style="connectable=0;recursiveResize=0;strokeColor=inherit;fillColor=none;align=center;whiteSpace=wrap;html=1;" parent="kKBqGEHmE_c0qirGsI-s-117" vertex="1">
          <mxGeometry x="38" width="38" height="30" as="geometry">
            <mxRectangle width="38" height="30" as="alternateBounds" />
          </mxGeometry>
        </mxCell>
        <mxCell id="kKBqGEHmE_c0qirGsI-s-120" value="10" style="connectable=0;recursiveResize=0;strokeColor=inherit;fillColor=none;align=center;whiteSpace=wrap;html=1;" parent="kKBqGEHmE_c0qirGsI-s-117" vertex="1">
          <mxGeometry x="76" width="38" height="30" as="geometry">
            <mxRectangle width="38" height="30" as="alternateBounds" />
          </mxGeometry>
        </mxCell>
        <mxCell id="kKBqGEHmE_c0qirGsI-s-122" value="12" style="connectable=0;recursiveResize=0;strokeColor=inherit;fillColor=none;align=center;whiteSpace=wrap;html=1;" parent="kKBqGEHmE_c0qirGsI-s-117" vertex="1">
          <mxGeometry x="114" width="38" height="30" as="geometry">
            <mxRectangle width="38" height="30" as="alternateBounds" />
          </mxGeometry>
        </mxCell>
        <mxCell id="kKBqGEHmE_c0qirGsI-s-121" value="CPU-Algoritm" style="shape=hexagon;perimeter=hexagonPerimeter2;whiteSpace=wrap;html=1;fixedSize=1;strokeColor=#6666FF;" parent="1" vertex="1">
          <mxGeometry x="774" y="707" width="90" height="30" as="geometry" />
        </mxCell>
        <mxCell id="8mt3POl3tIQ7QkisayCq-1" style="edgeStyle=orthogonalEdgeStyle;rounded=0;orthogonalLoop=1;jettySize=auto;html=1;exitX=1;exitY=0.5;exitDx=0;exitDy=0;" parent="1" source="8mt3POl3tIQ7QkisayCq-2" target="8mt3POl3tIQ7QkisayCq-5" edge="1">
          <mxGeometry relative="1" as="geometry">
            <mxPoint x="163" y="959" as="targetPoint" />
          </mxGeometry>
        </mxCell>
        <mxCell id="8mt3POl3tIQ7QkisayCq-2" value="" style="whiteSpace=wrap;html=1;aspect=fixed;" parent="1" vertex="1">
          <mxGeometry x="73" y="953.5" width="10" height="10" as="geometry" />
        </mxCell>
        <mxCell id="8mt3POl3tIQ7QkisayCq-3" value="Vcandidates[ ]" style="text;html=1;align=center;verticalAlign=middle;whiteSpace=wrap;rounded=0;" parent="1" vertex="1">
          <mxGeometry x="48" y="923.5" width="85" height="30" as="geometry" />
        </mxCell>
        <mxCell id="8mt3POl3tIQ7QkisayCq-4" value="" style="shape=curlyBracket;whiteSpace=wrap;html=1;rounded=1;labelPosition=left;verticalLabelPosition=middle;align=right;verticalAlign=middle;" parent="1" vertex="1">
          <mxGeometry x="203" y="890" width="20" height="137" as="geometry" />
        </mxCell>
        <mxCell id="8mt3POl3tIQ7QkisayCq-5" value="Nrows" style="text;html=1;align=center;verticalAlign=middle;whiteSpace=wrap;rounded=0;" parent="1" vertex="1">
          <mxGeometry x="153" y="943.5" width="60" height="30" as="geometry" />
        </mxCell>
        <mxCell id="8mt3POl3tIQ7QkisayCq-6" value="" style="shape=table;startSize=0;container=1;collapsible=0;childLayout=tableLayout;fontSize=16;" parent="1" vertex="1">
          <mxGeometry x="246" y="893" width="105" height="28" as="geometry" />
        </mxCell>
        <mxCell id="8mt3POl3tIQ7QkisayCq-7" value="" style="shape=tableRow;horizontal=0;startSize=0;swimlaneHead=0;swimlaneBody=0;strokeColor=inherit;top=0;left=0;bottom=0;right=0;collapsible=0;dropTarget=0;fillColor=none;points=[[0,0.5],[1,0.5]];portConstraint=eastwest;fontSize=16;" parent="8mt3POl3tIQ7QkisayCq-6" vertex="1">
          <mxGeometry width="105" height="28" as="geometry" />
        </mxCell>
        <mxCell id="8mt3POl3tIQ7QkisayCq-8" value="3" style="shape=partialRectangle;html=1;whiteSpace=wrap;connectable=0;strokeColor=inherit;overflow=hidden;fillColor=none;top=0;left=0;bottom=0;right=0;pointerEvents=1;fontSize=16;" parent="8mt3POl3tIQ7QkisayCq-7" vertex="1">
          <mxGeometry width="35" height="28" as="geometry">
            <mxRectangle width="35" height="28" as="alternateBounds" />
          </mxGeometry>
        </mxCell>
        <mxCell id="8mt3POl3tIQ7QkisayCq-9" value="7" style="shape=partialRectangle;html=1;whiteSpace=wrap;connectable=0;strokeColor=inherit;overflow=hidden;fillColor=none;top=0;left=0;bottom=0;right=0;pointerEvents=1;fontSize=16;" parent="8mt3POl3tIQ7QkisayCq-7" vertex="1">
          <mxGeometry x="35" width="35" height="28" as="geometry">
            <mxRectangle width="35" height="28" as="alternateBounds" />
          </mxGeometry>
        </mxCell>
        <mxCell id="8mt3POl3tIQ7QkisayCq-10" value="15" style="shape=partialRectangle;html=1;whiteSpace=wrap;connectable=0;strokeColor=inherit;overflow=hidden;fillColor=none;top=0;left=0;bottom=0;right=0;pointerEvents=1;fontSize=16;" parent="8mt3POl3tIQ7QkisayCq-7" vertex="1">
          <mxGeometry x="70" width="35" height="28" as="geometry">
            <mxRectangle width="35" height="28" as="alternateBounds" />
          </mxGeometry>
        </mxCell>
        <mxCell id="8mt3POl3tIQ7QkisayCq-11" value="" style="shape=table;startSize=0;container=1;collapsible=0;childLayout=tableLayout;fontSize=16;" parent="1" vertex="1">
          <mxGeometry x="246" y="927.5" width="140" height="28" as="geometry" />
        </mxCell>
        <mxCell id="8mt3POl3tIQ7QkisayCq-12" value="" style="shape=tableRow;horizontal=0;startSize=0;swimlaneHead=0;swimlaneBody=0;strokeColor=inherit;top=0;left=0;bottom=0;right=0;collapsible=0;dropTarget=0;fillColor=none;points=[[0,0.5],[1,0.5]];portConstraint=eastwest;fontSize=16;" parent="8mt3POl3tIQ7QkisayCq-11" vertex="1">
          <mxGeometry width="140" height="28" as="geometry" />
        </mxCell>
        <mxCell id="8mt3POl3tIQ7QkisayCq-13" value="5" style="shape=partialRectangle;html=1;whiteSpace=wrap;connectable=0;strokeColor=inherit;overflow=hidden;fillColor=none;top=0;left=0;bottom=0;right=0;pointerEvents=1;fontSize=16;" parent="8mt3POl3tIQ7QkisayCq-12" vertex="1">
          <mxGeometry width="35" height="28" as="geometry">
            <mxRectangle width="35" height="28" as="alternateBounds" />
          </mxGeometry>
        </mxCell>
        <mxCell id="8mt3POl3tIQ7QkisayCq-14" value="6" style="shape=partialRectangle;html=1;whiteSpace=wrap;connectable=0;strokeColor=inherit;overflow=hidden;fillColor=none;top=0;left=0;bottom=0;right=0;pointerEvents=1;fontSize=16;" parent="8mt3POl3tIQ7QkisayCq-12" vertex="1">
          <mxGeometry x="35" width="35" height="28" as="geometry">
            <mxRectangle width="35" height="28" as="alternateBounds" />
          </mxGeometry>
        </mxCell>
        <mxCell id="8mt3POl3tIQ7QkisayCq-15" value="12" style="shape=partialRectangle;html=1;whiteSpace=wrap;connectable=0;strokeColor=inherit;overflow=hidden;fillColor=none;top=0;left=0;bottom=0;right=0;pointerEvents=1;fontSize=16;" parent="8mt3POl3tIQ7QkisayCq-12" vertex="1">
          <mxGeometry x="70" width="35" height="28" as="geometry">
            <mxRectangle width="35" height="28" as="alternateBounds" />
          </mxGeometry>
        </mxCell>
        <mxCell id="8mt3POl3tIQ7QkisayCq-16" value="22" style="shape=partialRectangle;html=1;whiteSpace=wrap;connectable=0;strokeColor=inherit;overflow=hidden;fillColor=none;top=0;left=0;bottom=0;right=0;pointerEvents=1;fontSize=16;" parent="8mt3POl3tIQ7QkisayCq-12" vertex="1">
          <mxGeometry x="105" width="35" height="28" as="geometry">
            <mxRectangle width="35" height="28" as="alternateBounds" />
          </mxGeometry>
        </mxCell>
        <mxCell id="8mt3POl3tIQ7QkisayCq-17" value="" style="shape=table;startSize=0;container=1;collapsible=0;childLayout=tableLayout;fontSize=16;" parent="1" vertex="1">
          <mxGeometry x="246" y="963" width="105" height="28" as="geometry" />
        </mxCell>
        <mxCell id="8mt3POl3tIQ7QkisayCq-18" value="" style="shape=tableRow;horizontal=0;startSize=0;swimlaneHead=0;swimlaneBody=0;strokeColor=inherit;top=0;left=0;bottom=0;right=0;collapsible=0;dropTarget=0;fillColor=none;points=[[0,0.5],[1,0.5]];portConstraint=eastwest;fontSize=16;" parent="8mt3POl3tIQ7QkisayCq-17" vertex="1">
          <mxGeometry width="105" height="28" as="geometry" />
        </mxCell>
        <mxCell id="8mt3POl3tIQ7QkisayCq-19" value="2" style="shape=partialRectangle;html=1;whiteSpace=wrap;connectable=0;strokeColor=inherit;overflow=hidden;fillColor=none;top=0;left=0;bottom=0;right=0;pointerEvents=1;fontSize=16;" parent="8mt3POl3tIQ7QkisayCq-18" vertex="1">
          <mxGeometry width="35" height="28" as="geometry">
            <mxRectangle width="35" height="28" as="alternateBounds" />
          </mxGeometry>
        </mxCell>
        <mxCell id="8mt3POl3tIQ7QkisayCq-20" value="8" style="shape=partialRectangle;html=1;whiteSpace=wrap;connectable=0;strokeColor=inherit;overflow=hidden;fillColor=none;top=0;left=0;bottom=0;right=0;pointerEvents=1;fontSize=16;" parent="8mt3POl3tIQ7QkisayCq-18" vertex="1">
          <mxGeometry x="35" width="35" height="28" as="geometry">
            <mxRectangle width="35" height="28" as="alternateBounds" />
          </mxGeometry>
        </mxCell>
        <mxCell id="8mt3POl3tIQ7QkisayCq-21" value="9" style="shape=partialRectangle;html=1;whiteSpace=wrap;connectable=0;strokeColor=inherit;overflow=hidden;fillColor=none;top=0;left=0;bottom=0;right=0;pointerEvents=1;fontSize=16;" parent="8mt3POl3tIQ7QkisayCq-18" vertex="1">
          <mxGeometry x="70" width="35" height="28" as="geometry">
            <mxRectangle width="35" height="28" as="alternateBounds" />
          </mxGeometry>
        </mxCell>
        <mxCell id="8mt3POl3tIQ7QkisayCq-22" value="" style="shape=table;startSize=0;container=1;collapsible=0;childLayout=tableLayout;fontSize=16;" parent="1" vertex="1">
          <mxGeometry x="246" y="1000" width="70" height="28" as="geometry" />
        </mxCell>
        <mxCell id="8mt3POl3tIQ7QkisayCq-23" value="" style="shape=tableRow;horizontal=0;startSize=0;swimlaneHead=0;swimlaneBody=0;strokeColor=inherit;top=0;left=0;bottom=0;right=0;collapsible=0;dropTarget=0;fillColor=none;points=[[0,0.5],[1,0.5]];portConstraint=eastwest;fontSize=16;" parent="8mt3POl3tIQ7QkisayCq-22" vertex="1">
          <mxGeometry width="70" height="28" as="geometry" />
        </mxCell>
        <mxCell id="8mt3POl3tIQ7QkisayCq-24" value="6" style="shape=partialRectangle;html=1;whiteSpace=wrap;connectable=0;strokeColor=inherit;overflow=hidden;fillColor=none;top=0;left=0;bottom=0;right=0;pointerEvents=1;fontSize=16;" parent="8mt3POl3tIQ7QkisayCq-23" vertex="1">
          <mxGeometry width="35" height="28" as="geometry">
            <mxRectangle width="35" height="28" as="alternateBounds" />
          </mxGeometry>
        </mxCell>
        <mxCell id="8mt3POl3tIQ7QkisayCq-25" value="7" style="shape=partialRectangle;html=1;whiteSpace=wrap;connectable=0;strokeColor=inherit;overflow=hidden;fillColor=none;top=0;left=0;bottom=0;right=0;pointerEvents=1;fontSize=16;" parent="8mt3POl3tIQ7QkisayCq-23" vertex="1">
          <mxGeometry x="35" width="35" height="28" as="geometry">
            <mxRectangle width="35" height="28" as="alternateBounds" />
          </mxGeometry>
        </mxCell>
        <mxCell id="8mt3POl3tIQ7QkisayCq-29" style="edgeStyle=orthogonalEdgeStyle;rounded=0;orthogonalLoop=1;jettySize=auto;html=1;exitX=0.5;exitY=1;exitDx=0;exitDy=0;startSize=1;endSize=1;" parent="1" source="8mt3POl3tIQ7QkisayCq-26" edge="1">
          <mxGeometry relative="1" as="geometry">
            <mxPoint x="446" y="888" as="targetPoint" />
          </mxGeometry>
        </mxCell>
        <mxCell id="8mt3POl3tIQ7QkisayCq-26" value="" style="whiteSpace=wrap;html=1;aspect=fixed;" parent="1" vertex="1">
          <mxGeometry x="441.5" y="865" width="10" height="10" as="geometry" />
        </mxCell>
        <mxCell id="8mt3POl3tIQ7QkisayCq-27" value="size_refer[]" style="text;html=1;align=center;verticalAlign=middle;whiteSpace=wrap;rounded=0;" parent="1" vertex="1">
          <mxGeometry x="404" y="835" width="85" height="30" as="geometry" />
        </mxCell>
        <mxCell id="8mt3POl3tIQ7QkisayCq-30" value="" style="shape=table;startSize=0;container=1;collapsible=0;childLayout=tableLayout;fontSize=16;" parent="1" vertex="1">
          <mxGeometry x="431" y="907" width="33.75" height="119.5" as="geometry" />
        </mxCell>
        <mxCell id="8mt3POl3tIQ7QkisayCq-31" value="" style="shape=tableRow;horizontal=0;startSize=0;swimlaneHead=0;swimlaneBody=0;strokeColor=inherit;top=0;left=0;bottom=0;right=0;collapsible=0;dropTarget=0;fillColor=none;points=[[0,0.5],[1,0.5]];portConstraint=eastwest;fontSize=16;" parent="8mt3POl3tIQ7QkisayCq-30" vertex="1">
          <mxGeometry width="33.75" height="30" as="geometry" />
        </mxCell>
        <mxCell id="8mt3POl3tIQ7QkisayCq-32" value="3" style="shape=partialRectangle;html=1;whiteSpace=wrap;connectable=0;strokeColor=inherit;overflow=hidden;fillColor=none;top=0;left=0;bottom=0;right=0;pointerEvents=1;fontSize=16;" parent="8mt3POl3tIQ7QkisayCq-31" vertex="1">
          <mxGeometry width="34" height="30" as="geometry">
            <mxRectangle width="34" height="30" as="alternateBounds" />
          </mxGeometry>
        </mxCell>
        <mxCell id="8mt3POl3tIQ7QkisayCq-35" style="shape=tableRow;horizontal=0;startSize=0;swimlaneHead=0;swimlaneBody=0;strokeColor=inherit;top=0;left=0;bottom=0;right=0;collapsible=0;dropTarget=0;fillColor=none;points=[[0,0.5],[1,0.5]];portConstraint=eastwest;fontSize=16;" parent="8mt3POl3tIQ7QkisayCq-30" vertex="1">
          <mxGeometry y="30" width="33.75" height="30" as="geometry" />
        </mxCell>
        <mxCell id="8mt3POl3tIQ7QkisayCq-36" value="4" style="shape=partialRectangle;html=1;whiteSpace=wrap;connectable=0;strokeColor=inherit;overflow=hidden;fillColor=none;top=0;left=0;bottom=0;right=0;pointerEvents=1;fontSize=16;" parent="8mt3POl3tIQ7QkisayCq-35" vertex="1">
          <mxGeometry width="34" height="30" as="geometry">
            <mxRectangle width="34" height="30" as="alternateBounds" />
          </mxGeometry>
        </mxCell>
        <mxCell id="8mt3POl3tIQ7QkisayCq-37" style="shape=tableRow;horizontal=0;startSize=0;swimlaneHead=0;swimlaneBody=0;strokeColor=inherit;top=0;left=0;bottom=0;right=0;collapsible=0;dropTarget=0;fillColor=none;points=[[0,0.5],[1,0.5]];portConstraint=eastwest;fontSize=16;" parent="8mt3POl3tIQ7QkisayCq-30" vertex="1">
          <mxGeometry y="60" width="33.75" height="30" as="geometry" />
        </mxCell>
        <mxCell id="8mt3POl3tIQ7QkisayCq-38" value="3" style="shape=partialRectangle;html=1;whiteSpace=wrap;connectable=0;strokeColor=inherit;overflow=hidden;fillColor=none;top=0;left=0;bottom=0;right=0;pointerEvents=1;fontSize=16;" parent="8mt3POl3tIQ7QkisayCq-37" vertex="1">
          <mxGeometry width="34" height="30" as="geometry">
            <mxRectangle width="34" height="30" as="alternateBounds" />
          </mxGeometry>
        </mxCell>
        <mxCell id="8mt3POl3tIQ7QkisayCq-39" style="shape=tableRow;horizontal=0;startSize=0;swimlaneHead=0;swimlaneBody=0;strokeColor=inherit;top=0;left=0;bottom=0;right=0;collapsible=0;dropTarget=0;fillColor=none;points=[[0,0.5],[1,0.5]];portConstraint=eastwest;fontSize=16;" parent="8mt3POl3tIQ7QkisayCq-30" vertex="1">
          <mxGeometry y="90" width="33.75" height="30" as="geometry" />
        </mxCell>
        <mxCell id="8mt3POl3tIQ7QkisayCq-40" value="2" style="shape=partialRectangle;html=1;whiteSpace=wrap;connectable=0;strokeColor=inherit;overflow=hidden;fillColor=none;top=0;left=0;bottom=0;right=0;pointerEvents=1;fontSize=16;" parent="8mt3POl3tIQ7QkisayCq-39" vertex="1">
          <mxGeometry width="34" height="30" as="geometry">
            <mxRectangle width="34" height="30" as="alternateBounds" />
          </mxGeometry>
        </mxCell>
        <mxCell id="8mt3POl3tIQ7QkisayCq-41" value="" style="shape=curlyBracket;whiteSpace=wrap;html=1;rounded=1;labelPosition=left;verticalLabelPosition=middle;align=right;verticalAlign=middle;rotation=0;direction=west;" parent="1" vertex="1">
          <mxGeometry x="588" y="891" width="20" height="137" as="geometry" />
        </mxCell>
        <mxCell id="8mt3POl3tIQ7QkisayCq-42" value="Nrows" style="text;html=1;align=center;verticalAlign=middle;whiteSpace=wrap;rounded=0;rotation=0;direction=west;" parent="1" vertex="1">
          <mxGeometry x="611.75" y="944.5" width="60" height="30" as="geometry" />
        </mxCell>
        <mxCell id="8mt3POl3tIQ7QkisayCq-43" style="edgeStyle=orthogonalEdgeStyle;rounded=0;orthogonalLoop=1;jettySize=auto;html=1;exitX=0.5;exitY=1;exitDx=0;exitDy=0;startSize=1;endSize=1;" parent="1" source="8mt3POl3tIQ7QkisayCq-44" edge="1">
          <mxGeometry relative="1" as="geometry">
            <mxPoint x="535" y="888" as="targetPoint" />
          </mxGeometry>
        </mxCell>
        <mxCell id="8mt3POl3tIQ7QkisayCq-44" value="" style="whiteSpace=wrap;html=1;aspect=fixed;" parent="1" vertex="1">
          <mxGeometry x="530.5" y="865" width="10" height="10" as="geometry" />
        </mxCell>
        <mxCell id="8mt3POl3tIQ7QkisayCq-45" value="incremental_size_refer[]" style="text;html=1;align=center;verticalAlign=middle;whiteSpace=wrap;rounded=0;" parent="1" vertex="1">
          <mxGeometry x="486" y="835" width="151" height="30" as="geometry" />
        </mxCell>
        <mxCell id="8mt3POl3tIQ7QkisayCq-46" value="" style="shape=table;startSize=0;container=1;collapsible=0;childLayout=tableLayout;fontSize=16;" parent="1" vertex="1">
          <mxGeometry x="521" y="907.5" width="33.75" height="119.5" as="geometry" />
        </mxCell>
        <mxCell id="8mt3POl3tIQ7QkisayCq-47" value="" style="shape=tableRow;horizontal=0;startSize=0;swimlaneHead=0;swimlaneBody=0;strokeColor=inherit;top=0;left=0;bottom=0;right=0;collapsible=0;dropTarget=0;fillColor=none;points=[[0,0.5],[1,0.5]];portConstraint=eastwest;fontSize=16;" parent="8mt3POl3tIQ7QkisayCq-46" vertex="1">
          <mxGeometry width="33.75" height="30" as="geometry" />
        </mxCell>
        <mxCell id="8mt3POl3tIQ7QkisayCq-48" value="3" style="shape=partialRectangle;html=1;whiteSpace=wrap;connectable=0;strokeColor=inherit;overflow=hidden;fillColor=none;top=0;left=0;bottom=0;right=0;pointerEvents=1;fontSize=16;" parent="8mt3POl3tIQ7QkisayCq-47" vertex="1">
          <mxGeometry width="34" height="30" as="geometry">
            <mxRectangle width="34" height="30" as="alternateBounds" />
          </mxGeometry>
        </mxCell>
        <mxCell id="8mt3POl3tIQ7QkisayCq-49" style="shape=tableRow;horizontal=0;startSize=0;swimlaneHead=0;swimlaneBody=0;strokeColor=inherit;top=0;left=0;bottom=0;right=0;collapsible=0;dropTarget=0;fillColor=none;points=[[0,0.5],[1,0.5]];portConstraint=eastwest;fontSize=16;" parent="8mt3POl3tIQ7QkisayCq-46" vertex="1">
          <mxGeometry y="30" width="33.75" height="30" as="geometry" />
        </mxCell>
        <mxCell id="8mt3POl3tIQ7QkisayCq-50" value="7" style="shape=partialRectangle;html=1;whiteSpace=wrap;connectable=0;strokeColor=inherit;overflow=hidden;fillColor=none;top=0;left=0;bottom=0;right=0;pointerEvents=1;fontSize=16;" parent="8mt3POl3tIQ7QkisayCq-49" vertex="1">
          <mxGeometry width="34" height="30" as="geometry">
            <mxRectangle width="34" height="30" as="alternateBounds" />
          </mxGeometry>
        </mxCell>
        <mxCell id="8mt3POl3tIQ7QkisayCq-51" style="shape=tableRow;horizontal=0;startSize=0;swimlaneHead=0;swimlaneBody=0;strokeColor=inherit;top=0;left=0;bottom=0;right=0;collapsible=0;dropTarget=0;fillColor=none;points=[[0,0.5],[1,0.5]];portConstraint=eastwest;fontSize=16;" parent="8mt3POl3tIQ7QkisayCq-46" vertex="1">
          <mxGeometry y="60" width="33.75" height="30" as="geometry" />
        </mxCell>
        <mxCell id="8mt3POl3tIQ7QkisayCq-52" value="10" style="shape=partialRectangle;html=1;whiteSpace=wrap;connectable=0;strokeColor=inherit;overflow=hidden;fillColor=none;top=0;left=0;bottom=0;right=0;pointerEvents=1;fontSize=16;" parent="8mt3POl3tIQ7QkisayCq-51" vertex="1">
          <mxGeometry width="34" height="30" as="geometry">
            <mxRectangle width="34" height="30" as="alternateBounds" />
          </mxGeometry>
        </mxCell>
        <mxCell id="8mt3POl3tIQ7QkisayCq-53" style="shape=tableRow;horizontal=0;startSize=0;swimlaneHead=0;swimlaneBody=0;strokeColor=inherit;top=0;left=0;bottom=0;right=0;collapsible=0;dropTarget=0;fillColor=none;points=[[0,0.5],[1,0.5]];portConstraint=eastwest;fontSize=16;" parent="8mt3POl3tIQ7QkisayCq-46" vertex="1">
          <mxGeometry y="90" width="33.75" height="30" as="geometry" />
        </mxCell>
        <mxCell id="8mt3POl3tIQ7QkisayCq-54" value="12" style="shape=partialRectangle;html=1;whiteSpace=wrap;connectable=0;strokeColor=inherit;overflow=hidden;fillColor=none;top=0;left=0;bottom=0;right=0;pointerEvents=1;fontSize=16;" parent="8mt3POl3tIQ7QkisayCq-53" vertex="1">
          <mxGeometry width="34" height="30" as="geometry">
            <mxRectangle width="34" height="30" as="alternateBounds" />
          </mxGeometry>
        </mxCell>
        <mxCell id="8mt3POl3tIQ7QkisayCq-55" value="" style="endArrow=none;dashed=1;html=1;dashPattern=1 3;strokeWidth=2;rounded=0;entryX=1;entryY=0.5;entryDx=0;entryDy=0;" parent="1" target="8mt3POl3tIQ7QkisayCq-6" edge="1">
          <mxGeometry width="50" height="50" relative="1" as="geometry">
            <mxPoint x="431" y="921" as="sourcePoint" />
            <mxPoint x="481" y="871" as="targetPoint" />
          </mxGeometry>
        </mxCell>
        <mxCell id="8mt3POl3tIQ7QkisayCq-56" value="" style="endArrow=none;dashed=1;html=1;dashPattern=1 3;strokeWidth=2;rounded=0;entryX=1;entryY=0.5;entryDx=0;entryDy=0;exitX=-0.065;exitY=0.42;exitDx=0;exitDy=0;exitPerimeter=0;" parent="1" source="8mt3POl3tIQ7QkisayCq-35" target="8mt3POl3tIQ7QkisayCq-11" edge="1">
          <mxGeometry width="50" height="50" relative="1" as="geometry">
            <mxPoint x="441" y="931" as="sourcePoint" />
            <mxPoint x="361" y="917" as="targetPoint" />
          </mxGeometry>
        </mxCell>
        <mxCell id="8mt3POl3tIQ7QkisayCq-57" value="" style="endArrow=none;dashed=1;html=1;dashPattern=1 3;strokeWidth=2;rounded=0;entryX=1;entryY=0.5;entryDx=0;entryDy=0;exitX=0;exitY=0.5;exitDx=0;exitDy=0;" parent="1" source="8mt3POl3tIQ7QkisayCq-37" edge="1">
          <mxGeometry width="50" height="50" relative="1" as="geometry">
            <mxPoint x="431" y="987.5" as="sourcePoint" />
            <mxPoint x="351" y="973.5" as="targetPoint" />
          </mxGeometry>
        </mxCell>
        <mxCell id="8mt3POl3tIQ7QkisayCq-58" value="" style="endArrow=none;dashed=1;html=1;dashPattern=1 3;strokeWidth=2;rounded=0;entryX=1;entryY=0.5;entryDx=0;entryDy=0;exitX=0;exitY=0.5;exitDx=0;exitDy=0;" parent="1" source="8mt3POl3tIQ7QkisayCq-39" edge="1">
          <mxGeometry width="50" height="50" relative="1" as="geometry">
            <mxPoint x="396" y="1026.5" as="sourcePoint" />
            <mxPoint x="316" y="1012.5" as="targetPoint" />
          </mxGeometry>
        </mxCell>
        <mxCell id="8mt3POl3tIQ7QkisayCq-59" value="" style="endArrow=none;dashed=1;html=1;dashPattern=1 3;strokeWidth=2;rounded=0;entryX=0.978;entryY=0.407;entryDx=0;entryDy=0;exitX=-0.018;exitY=0.115;exitDx=0;exitDy=0;exitPerimeter=0;entryPerimeter=0;" parent="1" source="8mt3POl3tIQ7QkisayCq-46" target="8mt3POl3tIQ7QkisayCq-31" edge="1">
          <mxGeometry width="50" height="50" relative="1" as="geometry">
            <mxPoint x="471" y="961" as="sourcePoint" />
            <mxPoint x="391" y="947" as="targetPoint" />
          </mxGeometry>
        </mxCell>
        <mxCell id="8mt3POl3tIQ7QkisayCq-60" value="" style="endArrow=none;dashed=1;html=1;dashPattern=1 3;strokeWidth=2;rounded=0;entryX=0.978;entryY=0.407;entryDx=0;entryDy=0;exitX=-0.018;exitY=0.115;exitDx=0;exitDy=0;exitPerimeter=0;entryPerimeter=0;" parent="1" edge="1">
          <mxGeometry width="50" height="50" relative="1" as="geometry">
            <mxPoint x="518" y="953.5" as="sourcePoint" />
            <mxPoint x="462" y="951.5" as="targetPoint" />
          </mxGeometry>
        </mxCell>
        <mxCell id="8mt3POl3tIQ7QkisayCq-61" value="" style="endArrow=none;dashed=1;html=1;dashPattern=1 3;strokeWidth=2;rounded=0;entryX=0.978;entryY=0.407;entryDx=0;entryDy=0;exitX=-0.018;exitY=0.115;exitDx=0;exitDy=0;exitPerimeter=0;entryPerimeter=0;" parent="1" edge="1">
          <mxGeometry width="50" height="50" relative="1" as="geometry">
            <mxPoint x="518" y="983" as="sourcePoint" />
            <mxPoint x="462" y="981" as="targetPoint" />
          </mxGeometry>
        </mxCell>
        <mxCell id="8mt3POl3tIQ7QkisayCq-62" value="" style="endArrow=none;dashed=1;html=1;dashPattern=1 3;strokeWidth=2;rounded=0;entryX=0.978;entryY=0.407;entryDx=0;entryDy=0;exitX=-0.018;exitY=0.115;exitDx=0;exitDy=0;exitPerimeter=0;entryPerimeter=0;" parent="1" edge="1">
          <mxGeometry width="50" height="50" relative="1" as="geometry">
            <mxPoint x="518" y="1012" as="sourcePoint" />
            <mxPoint x="462" y="1010" as="targetPoint" />
          </mxGeometry>
        </mxCell>
      </root>
    </mxGraphModel>
  </diagram>
</mxfile>
